<svg width="150" height="150" viewBox="0 0 150 150" fill="none" xmlns="http://www.w3.org/2000/svg">
<path d="M87.6633 86.817H80.1567C81.1683 88.5792 82.2129 90.3744 83.2572 92.1369C81.6906 93.9972 80.0913 95.9226 78.5247 97.8483H71.9973C70.2348 95.8899 68.505 93.9972 66.6774 92.0388C67.7871 90.2766 68.7663 88.5465 69.8106 86.817H62.3694C45.7569 86.817 30.6786 93.5403 19.8105 104.441C8.9094 115.342 2.1864 130.388 2.1864 147H147.814C147.814 113.776 120.888 86.817 87.6633 86.817ZM74.9346 139.69V139.787C71.5404 135.12 68.1786 130.486 64.7844 125.884C67.1343 116.778 69.4515 107.672 71.7687 98.5665H78.0024C80.4174 107.705 82.8003 116.811 85.2153 125.949C81.7887 130.551 78.3618 135.12 74.9346 139.69ZM47.718 52.1481C48.2589 66.7677 60.2487 78.462 75.0003 78.462C89.7519 78.462 101.742 66.7677 102.283 52.1481H47.718Z" fill="#2B3344"/>
<path d="M75.0681 3.0006L24.4806 25.3026L49.2306 36.3177L49.158 43.797H100.269L99.9543 36.0456L119.4 27.8742V55.9008C114.884 57.3009 111.581 61.4622 111.581 66.4389V76.4343H133.747V66.4389C133.747 61.4619 130.445 57.3009 125.928 55.9008V25.3365" fill="#2B3344"/>
</svg>
